<?xml version="1.0" encoding="UTF-8"?>
<svg version="1.1" xmlns="http://www.w3.org/2000/svg" width="64" height="64">
<path d="M0 0 C4.68345246 0.89513085 6.48090085 2.73239905 9.19921875 6.515625 C12.4681143 12.18446918 12.4681143 12.18446918 12.24609375 15.21875 C11.43359375 17.65625 11.43359375 17.65625 9.93359375 19.03125 C7.68635797 21.15734928 7.68635797 21.15734928 7.43359375 27.65625 C0.17359375 27.65625 -7.08640625 27.65625 -14.56640625 27.65625 C-14.89640625 24.02625 -15.22640625 20.39625 -15.56640625 16.65625 C-16.88640625 16.32625 -18.20640625 15.99625 -19.56640625 15.65625 C-18.20231731 4.06149405 -10.64561134 -0.26586334 0 0 Z " fill="#050001" transform="translate(32.56640625,21.34375)"/>
<path d="M0 0 C2.625 0.375 2.625 0.375 5 1 C5.33 0.67 5.66 0.34 6 0 C7.99958364 -0.04080783 10.00045254 -0.04254356 12 0 C12 1.32 12 2.64 12 4 C12.99 3.67 13.98 3.34 15 3 C17.90212286 6.38581001 19.29395475 8.73488687 21 13 C13.08 13 5.16 13 -3 13 C-2.34 12.67 -1.68 12.34 -1 12 C-1 11.01 -1 10.02 -1 9 C-2.98 9.33 -4.96 9.66 -7 10 C-6.34 8.68 -5.68 7.36 -5 6 C-3.68 6.66 -2.36 7.32 -1 8 C-1.66 6.35 -2.32 4.7 -3 3 C-1.8125 1.4375 -1.8125 1.4375 0 0 Z " fill="#9B1217" transform="translate(23,23)"/>
<path d="M0 0 C0.99 0.33 1.98 0.66 3 1 C6.05270463 1.15811388 6.05270463 1.15811388 9 0 C11.87137415 0 14.2303041 0.27113266 17 1 C18 3 18 3 18 10 C11.4 10 4.8 10 -2 10 C-2 2 -2 2 0 0 Z " fill="#D6C788" transform="translate(21,38)"/>
<path d="M0 0 C2.3125 0.0625 2.3125 0.0625 5 1 C6.8125 4.5625 6.8125 4.5625 8 8 C5.36 8 2.72 8 0 8 C-0.66 6.68 -1.32 5.36 -2 4 C-1.34 4 -0.68 4 0 4 C0 2.68 0 1.36 0 0 Z " fill="#740D11" transform="translate(36,28)"/>
<path d="M0 0 C0.99 0.99 1.98 1.98 3 3 C1.68 2.67 0.36 2.34 -1 2 C-1 3.32 -1 4.64 -1 6 C-1.66 6 -2.32 6 -3 6 C-2.34 7.32 -1.68 8.64 -1 10 C-3.97 10 -6.94 10 -10 10 C-9.34 9.01 -8.68 8.02 -8 7 C-7.01 7 -6.02 7 -5 7 C-4.67 6.34 -4.34 5.68 -4 5 C-3.34 5 -2.68 5 -2 5 C-2.33 3.68 -2.66 2.36 -3 1 C-2.01 0.67 -1.02 0.34 0 0 Z " fill="#ED1C24" transform="translate(37,26)"/>
</svg>
