<?xml version="1.0" encoding="UTF-8"?>
<svg version="1.1" xmlns="http://www.w3.org/2000/svg" width="256" height="256">
<path d="M0 0 C18.48 0 36.96 0 56 0 C56 1.32 56 2.64 56 4 C57.32 4 58.64 4 60 4 C60 5.32 60 6.64 60 8 C61.32 8 62.64 8 64 8 C64 9.32 64 10.64 64 12 C65.32 12 66.64 12 68 12 C68 13.32 68 14.64 68 16 C69.32 16 70.64 16 72 16 C72 17.32 72 18.64 72 20 C73.32 20 74.64 20 76 20 C76 21.32 76 22.64 76 24 C77.32 24 78.64 24 80 24 C80 26.64 80 29.28 80 32 C81.32 32 82.64 32 84 32 C84 34.64 84 37.28 84 40 C85.32 40 86.64 40 88 40 C88 42.64 88 45.28 88 48 C89.32 48 90.64 48 92 48 C92 51.96 92 55.92 92 60 C90.68 60 89.36 60 88 60 C88 62.64 88 65.28 88 68 C86.68 68 85.36 68 84 68 C84 69.32 84 70.64 84 72 C82.68 72 81.36 72 80 72 C80 73.32 80 74.64 80 76 C78.68 76 77.36 76 76 76 C76 77.32 76 78.64 76 80 C74.68 80 73.36 80 72 80 C72 89.24 72 98.48 72 108 C42.96 108 13.92 108 -16 108 C-16 96.12 -16 84.24 -16 72 C-17.32 72 -18.64 72 -20 72 C-20 69.36 -20 66.72 -20 64 C-23.96 64 -27.92 64 -32 64 C-32 62.68 -32 61.36 -32 60 C-33.32 60 -34.64 60 -36 60 C-36 56.04 -36 52.08 -36 48 C-34.68 48 -33.36 48 -32 48 C-32 45.36 -32 42.72 -32 40 C-30.68 40 -29.36 40 -28 40 C-28 37.36 -28 34.72 -28 32 C-26.68 32 -25.36 32 -24 32 C-24 29.36 -24 26.72 -24 24 C-22.68 24 -21.36 24 -20 24 C-20 22.68 -20 21.36 -20 20 C-18.68 20 -17.36 20 -16 20 C-16 18.68 -16 17.36 -16 16 C-14.68 16 -13.36 16 -12 16 C-12 14.68 -12 13.36 -12 12 C-10.68 12 -9.36 12 -8 12 C-8 10.68 -8 9.36 -8 8 C-6.68 8 -5.36 8 -4 8 C-4 6.68 -4 5.36 -4 4 C-2.68 4 -1.36 4 0 4 C0 2.68 0 1.36 0 0 Z " fill="#010000" transform="translate(88,88)"/>
<path d="M0 0 C2.64 0 5.28 0 8 0 C8 1.32 8 2.64 8 4 C9.32 4 10.64 4 12 4 C12 5.32 12 6.64 12 8 C14.64 8 17.28 8 20 8 C20 6.68 20 5.36 20 4 C21.32 4 22.64 4 24 4 C24 2.68 24 1.36 24 0 C31.92 0 39.84 0 48 0 C48 5.28 48 10.56 48 16 C50.64 16 53.28 16 56 16 C56 14.68 56 13.36 56 12 C57.32 12 58.64 12 60 12 C60 13.32 60 14.64 60 16 C61.32 16 62.64 16 64 16 C64 17.32 64 18.64 64 20 C65.32 20 66.64 20 68 20 C68 21.32 68 22.64 68 24 C69.32 24 70.64 24 72 24 C72 26.64 72 29.28 72 32 C73.32 32 74.64 32 76 32 C76 34.64 76 37.28 76 40 C77.32 40 78.64 40 80 40 C80 42.64 80 45.28 80 48 C81.32 48 82.64 48 84 48 C84 49.32 84 50.64 84 52 C52.32 52 20.64 52 -12 52 C-12 50.68 -12 49.36 -12 48 C-9.36 48 -6.72 48 -4 48 C-4 44.04 -4 40.08 -4 36 C-6.64 36 -9.28 36 -12 36 C-12 37.32 -12 38.64 -12 40 C-13.32 40 -14.64 40 -16 40 C-16 38.68 -16 37.36 -16 36 C-18.64 36 -21.28 36 -24 36 C-24 37.32 -24 38.64 -24 40 C-25.32 40 -26.64 40 -28 40 C-28 37.36 -28 34.72 -28 32 C-26.68 32 -25.36 32 -24 32 C-24 29.36 -24 26.72 -24 24 C-22.68 24 -21.36 24 -20 24 C-20 25.32 -20 26.64 -20 28 C-18.68 28 -17.36 28 -16 28 C-16 29.32 -16 30.64 -16 32 C-12.04 32 -8.08 32 -4 32 C-4 28.04 -4 24.08 -4 20 C-5.32 20 -6.64 20 -8 20 C-8 18.68 -8 17.36 -8 16 C-9.32 16 -10.64 16 -12 16 C-12 14.68 -12 13.36 -12 12 C-10.68 12 -9.36 12 -8 12 C-8 10.68 -8 9.36 -8 8 C-6.68 8 -5.36 8 -4 8 C-4 6.68 -4 5.36 -4 4 C-2.68 4 -1.36 4 0 4 C0 2.68 0 1.36 0 0 Z " fill="#ED1C24" transform="translate(92,92)"/>
<path d="M0 0 C1.32 0 2.64 0 4 0 C4 1.32 4 2.64 4 4 C5.32 4 6.64 4 8 4 C8 5.32 8 6.64 8 8 C9.32 8 10.64 8 12 8 C12 6.68 12 5.36 12 4 C13.32 4 14.64 4 16 4 C16 2.68 16 1.36 16 0 C17.32 0 18.64 0 20 0 C20 1.32 20 2.64 20 4 C21.32 4 22.64 4 24 4 C24 5.32 24 6.64 24 8 C25.32 8 26.64 8 28 8 C28 6.68 28 5.36 28 4 C29.32 4 30.64 4 32 4 C32 2.68 32 1.36 32 0 C33.32 0 34.64 0 36 0 C36 1.32 36 2.64 36 4 C37.32 4 38.64 4 40 4 C40 5.32 40 6.64 40 8 C41.32 8 42.64 8 44 8 C44 6.68 44 5.36 44 4 C45.32 4 46.64 4 48 4 C48 2.68 48 1.36 48 0 C49.32 0 50.64 0 52 0 C52 1.32 52 2.64 52 4 C57.28 4 62.56 4 68 4 C68 6.64 68 9.28 68 12 C69.32 12 70.64 12 72 12 C72 21.24 72 30.48 72 40 C45.6 40 19.2 40 -8 40 C-8 29.44 -8 18.88 -8 8 C-6.68 8 -5.36 8 -4 8 C-4 6.68 -4 5.36 -4 4 C-2.68 4 -1.36 4 0 4 C0 2.68 0 1.36 0 0 Z " fill="#F5E49C" transform="translate(84,152)"/>
<path d="M0 0 C1.32 0 2.64 0 4 0 C4 1.32 4 2.64 4 4 C5.32 4 6.64 4 8 4 C8 5.32 8 6.64 8 8 C9.32 8 10.64 8 12 8 C12 6.68 12 5.36 12 4 C13.32 4 14.64 4 16 4 C16 2.68 16 1.36 16 0 C18.64 0 21.28 0 24 0 C24 1.32 24 2.64 24 4 C25.32 4 26.64 4 28 4 C28 5.32 28 6.64 28 8 C29.32 8 30.64 8 32 8 C32 6.68 32 5.36 32 4 C33.32 4 34.64 4 36 4 C36 2.68 36 1.36 36 0 C37.32 0 38.64 0 40 0 C40 2.64 40 5.28 40 8 C38.68 8 37.36 8 36 8 C36 9.32 36 10.64 36 12 C32.04 12 28.08 12 24 12 C24 10.68 24 9.36 24 8 C21.36 8 18.72 8 16 8 C16 9.32 16 10.64 16 12 C12.04 12 8.08 12 4 12 C4 10.68 4 9.36 4 8 C2.68 8 1.36 8 0 8 C0 5.36 0 2.72 0 0 Z " fill="#000000" transform="translate(92,176)"/>
<path d="M0 0 C3.96 0 7.92 0 12 0 C12 1.32 12 2.64 12 4 C13.32 4 14.64 4 16 4 C16 6.64 16 9.28 16 12 C13.36 12 10.72 12 8 12 C8 13.32 8 14.64 8 16 C5.36 16 2.72 16 0 16 C0 14.68 0 13.36 0 12 C-1.32 12 -2.64 12 -4 12 C-4 9.36 -4 6.72 -4 4 C-2.68 4 -1.36 4 0 4 C0 2.68 0 1.36 0 0 Z " fill="#000000" transform="translate(100,124)"/>
<path d="M0 0 C2.64 0 5.28 0 8 0 C8 1.32 8 2.64 8 4 C10.64 4 13.28 4 16 4 C16 6.64 16 9.28 16 12 C14.68 12 13.36 12 12 12 C12 13.32 12 14.64 12 16 C8.04 16 4.08 16 0 16 C0 10.72 0 5.44 0 0 Z " fill="#000000" transform="translate(144,112)"/>
<path d="M0 0 C2.64 0 5.28 0 8 0 C8 1.32 8 2.64 8 4 C9.32 4 10.64 4 12 4 C12 6.64 12 9.28 12 12 C10.68 12 9.36 12 8 12 C8 13.32 8 14.64 8 16 C5.36 16 2.72 16 0 16 C0 14.68 0 13.36 0 12 C-1.32 12 -2.64 12 -4 12 C-4 9.36 -4 6.72 -4 4 C-2.68 4 -1.36 4 0 4 C0 2.68 0 1.36 0 0 Z " fill="#000000" transform="translate(124,96)"/>
<path d="M0 0 C1.32 0 2.64 0 4 0 C4 1.32 4 2.64 4 4 C5.32 4 6.64 4 8 4 C8 6.64 8 9.28 8 12 C6.68 12 5.36 12 4 12 C4 13.32 4 14.64 4 16 C2.68 16 1.36 16 0 16 C0 14.68 0 13.36 0 12 C-1.32 12 -2.64 12 -4 12 C-4 9.36 -4 6.72 -4 4 C-2.68 4 -1.36 4 0 4 C0 2.68 0 1.36 0 0 Z " fill="#000000" transform="translate(124,120)"/>
<path d="M0 0 C3.96 0 7.92 0 12 0 C12 3.96 12 7.92 12 12 C9.36 12 6.72 12 4 12 C4 10.68 4 9.36 4 8 C2.68 8 1.36 8 0 8 C0 5.36 0 2.72 0 0 Z " fill="#000000" transform="translate(92,104)"/>
<path d="M0 0 C2.64 0 5.28 0 8 0 C8 1.32 8 2.64 8 4 C9.32 4 10.64 4 12 4 C12 6.64 12 9.28 12 12 C9.36 12 6.72 12 4 12 C4 10.68 4 9.36 4 8 C2.68 8 1.36 8 0 8 C0 5.36 0 2.72 0 0 Z " fill="#000000" transform="translate(136,128)"/>
<path d="M0 0 C3.96 0 7.92 0 12 0 C12 2.64 12 5.28 12 8 C8.04 8 4.08 8 0 8 C0 5.36 0 2.72 0 0 Z " fill="#000000" transform="translate(156,132)"/>
<path d="M0 0 C1.32 0 2.64 0 4 0 C4 3.96 4 7.92 4 12 C1.36 12 -1.28 12 -4 12 C-4 9.36 -4 6.72 -4 4 C-2.68 4 -1.36 4 0 4 C0 2.68 0 1.36 0 0 Z " fill="#000000" transform="translate(136,112)"/>
<path d="M0 0 C1.32 0 2.64 0 4 0 C4 1.32 4 2.64 4 4 C5.32 4 6.64 4 8 4 C8 6.64 8 9.28 8 12 C5.36 12 2.72 12 0 12 C0 8.04 0 4.08 0 0 Z " fill="#000000" transform="translate(108,104)"/>
<path d="M0 0 C1.32 0 2.64 0 4 0 C4 3.96 4 7.92 4 12 C1.36 12 -1.28 12 -4 12 C-4 10.68 -4 9.36 -4 8 C-2.68 8 -1.36 8 0 8 C0 5.36 0 2.72 0 0 Z " fill="#ED1C24" transform="translate(60,132)"/>
<path d="M0 0 C1.32 0 2.64 0 4 0 C4 2.64 4 5.28 4 8 C2.68 8 1.36 8 0 8 C0 5.36 0 2.72 0 0 Z " fill="#000000" transform="translate(140,160)"/>
<path d="M0 0 C1.32 0 2.64 0 4 0 C4 2.64 4 5.28 4 8 C2.68 8 1.36 8 0 8 C0 5.36 0 2.72 0 0 Z " fill="#000000" transform="translate(84,160)"/>
</svg>
